<?xml version="1.0" encoding="utf-8"?>
<!-- Generator: Adobe Illustrator 28.1.0, SVG Export Plug-In . SVG Version: 6.00 Build 0)  -->
<svg version="1.1" id="Capa_1" xmlns="http://www.w3.org/2000/svg" xmlns:xlink="http://www.w3.org/1999/xlink" x="0px" y="0px"
	 viewBox="0 0 374 336" style="enable-background:new 0 0 374 336;" xml:space="preserve">
<style type="text/css">
	.st0{fill:#F7D21E;stroke:#F7D21E;stroke-width:6;stroke-miterlimit:10;}
	.st1{fill:#00C8F5;stroke:#00C8F5;stroke-width:6;stroke-miterlimit:10;}
	.st2{fill:#506469;stroke:#506469;stroke-width:4;stroke-miterlimit:10;}
	.st3{fill:#FFFFFF;stroke:#FFFFFF;stroke-width:7;stroke-miterlimit:10;}
</style>
<path class="st0" d="M257.59,202.24l-8.21-8.21c1.14-1.15,27.77-28.53,6.49-53.08c-20.51-23.66-52.01-2.8-53.34-1.9l-6.53-9.61
	c14.19-9.67,46.81-21.3,68.65,3.9C287.36,159.54,269.97,189.86,257.59,202.24z"/>
<path class="st0" d="M212.43,102.81c-2.92,0-5.44-2.2-5.76-5.17l-1.94-17.43c-0.35-3.19,1.94-6.06,5.13-6.41
	c3.18-0.35,6.06,1.94,6.41,5.13l1.94,17.43c0.35,3.19-1.94,6.06-5.13,6.41C212.86,102.8,212.65,102.81,212.43,102.81z"/>
<path class="st0" d="M278.66,126.49c-1.49,0-2.97-0.57-4.11-1.7c-2.27-2.27-2.27-5.95,0-8.21l15.49-15.49
	c2.27-2.27,5.95-2.27,8.21,0c2.27,2.27,2.27,5.95,0,8.21l-15.49,15.49C281.63,125.92,280.14,126.49,278.66,126.49z"/>
<path class="st0" d="M311.57,198.13c-0.51,0-1.02-0.07-1.53-0.21l-21.3-5.81c-3.09-0.84-4.92-4.04-4.08-7.13
	c0.85-3.1,4.04-4.92,7.13-4.08l21.3,5.81c3.09,0.84,4.92,4.04,4.08,7.13C316.47,196.43,314.13,198.13,311.57,198.13z"/>
<path class="st0" d="M245.74,258.15c-3.21,0-5.81-2.6-5.81-5.81v-11.62c0-3.21,2.6-5.81,5.81-5.81s5.81,2.6,5.81,5.81v11.62
	C251.55,255.55,248.95,258.15,245.74,258.15z"/>
<path class="st1" d="M134.85,235.41c-0.64-1.09-1.92-1.28-3.09-0.83c-2.68,1.02-10.89,3.99-17.47,16.32c0,0-5.81,15.77,9.68,19.5
	c8.52,2.05,12.94-1.71,15.19-5.51c1.77-2.99,2.36-6.53,1.97-9.98C140.62,250.47,139.14,242.73,134.85,235.41z"/>
<path class="st2" d="M168.53,212.42c-0.64-1.09-1.92-1.28-3.09-0.83c-2.68,1.02-10.89,3.99-17.47,16.32c0,0-5.81,15.77,9.68,19.5
	c8.52,2.05,12.94-1.71,15.19-5.51c1.77-2.99,2.36-6.53,1.97-9.98C174.3,227.48,172.83,219.74,168.53,212.42z"/>
<path class="st2" d="M162.11,264.79c-0.51-0.86-1.52-1.01-2.45-0.65c-2.12,0.81-8.63,3.16-13.85,12.94c0,0-4.6,12.51,7.67,15.46
	c6.75,1.63,10.26-1.36,12.04-4.37c1.4-2.37,1.87-5.18,1.56-7.91C166.68,276.73,165.51,270.6,162.11,264.79z"/>
<path class="st1" d="M193.85,242.64c-0.57-0.98-1.72-1.15-2.78-0.74c-2.4,0.92-9.78,3.58-15.7,14.66c0,0-5.22,14.17,8.7,17.52
	c7.65,1.84,11.63-1.54,13.65-4.95c1.59-2.69,2.12-5.87,1.77-8.97C199.04,256.18,197.72,249.22,193.85,242.64z"/>
<path class="st3" d="M106.09,254.27C88.76,253.52,56,241.62,56,202l0.07-0.91c4.78-30.28,30.26-38.85,46.25-39.45
	c5.07-12.17,23.41-46.13,68.57-40.92c45.1,5.2,54.85,42.15,56.89,55.2c14.24,3.83,35.05,16.07,33.43,41.93
	c-1.81,29.02-32.63,35.25-48.67,34.48l0.55-11.6c1.42,0.06,34.97,1.25,36.52-23.6c1.58-25.29-26.88-30.49-28.09-30.7l-4.63-0.8
	l-0.2-4.7c-0.08-1.76-2.49-43.52-47.14-48.67c-44.71-5.15-57.14,35.13-57.65,36.85l-1.31,4.42l-4.61-0.25
	c-1.34-0.08-33.24-1.39-38.38,29.18c0.3,37.87,37.4,40.13,38.99,40.21L106.09,254.27z"/>
</svg>
